<svg width="500" height="500" viewBox="0 0 500 500" fill="none" xmlns="http://www.w3.org/2000/svg">
<path d="M198.785 148.987L163.858 84.8472C146.568 93.3026 130.606 104.335 116.78 117.424L167.149 164.797L198.785 148.987Z" fill="#2493FB"/>
<path d="M133.231 187.774C134.963 186.5 81.736 163.218 81.8226 162.61C72.5859 179.463 66.0913 197.677 62.5986 216.499L134.674 226.489C131.297 203.729 133.173 188.179 133.231 187.774Z" fill="#2493FB"/>
<path d="M241.37 127.691C243.102 126.822 245.036 126.359 246.999 126.301C248.962 126.272 250.896 126.648 252.685 127.459L264.606 132.758L273.756 66.5046C270.119 66.0413 266.425 65.6938 262.759 65.4332C262.615 65.4332 262.499 65.4332 262.355 65.4332C262.268 65.4332 262.211 65.4332 262.124 65.4332C262.124 65.4332 262.124 65.4332 262.095 65.4332C261.98 65.4332 261.835 65.4332 261.72 65.4332C261.72 65.4332 261.691 65.4332 261.662 65.4332C261.604 65.4332 261.547 65.4332 261.46 65.4332C261.46 65.4332 261.431 65.4332 261.402 65.4332C261.373 65.4332 261.316 65.4332 261.287 65.4332C261.287 65.4332 261.229 65.4332 261.2 65.4332C261.143 65.4332 261.085 65.4332 261.027 65.4332C261.027 65.4332 260.969 65.4332 260.94 65.4332C260.912 65.4332 260.883 65.4332 260.825 65.4332C260.767 65.4332 260.738 65.4332 260.681 65.4332C260.681 65.4332 260.623 65.4332 260.594 65.4332C260.565 65.4332 260.508 65.4332 260.479 65.4332C260.45 65.4332 260.392 65.4332 260.363 65.4332C260.334 65.4332 260.277 65.4332 260.248 65.4332C260.248 65.4332 260.19 65.4332 260.161 65.4332C260.103 65.4332 260.046 65.4332 259.988 65.4332C259.988 65.4332 259.93 65.4332 259.901 65.4332C259.872 65.4332 259.815 65.4332 259.786 65.4332C259.786 65.4332 259.728 65.4332 259.699 65.4332C259.642 65.4332 259.584 65.4332 259.555 65.4332C259.555 65.4332 259.497 65.4332 259.468 65.4332C259.411 65.4332 259.353 65.4332 259.295 65.4332C259.295 65.4332 259.266 65.4332 259.237 65.4332C259.18 65.4332 259.151 65.4332 259.093 65.4332C259.093 65.4332 259.064 65.4332 259.035 65.4332C258.978 65.4332 258.92 65.4332 258.862 65.4332C258.862 65.4332 258.833 65.4332 258.804 65.4332C258.747 65.4332 258.689 65.4332 258.631 65.4332C258.574 65.4332 258.516 65.4332 258.429 65.4332C258.429 65.4332 258.429 65.4332 258.4 65.4332C258.343 65.4332 258.256 65.4332 258.198 65.4332C258.198 65.4332 258.198 65.4332 258.169 65.4332C258.112 65.4332 258.054 65.4332 257.967 65.4332C257.91 65.4332 257.823 65.4332 257.765 65.4332C257.765 65.4332 257.765 65.4332 257.736 65.4332C257.679 65.4332 257.592 65.4332 257.534 65.4332C257.534 65.4332 257.39 65.4332 257.332 65.4332C257.275 65.4332 257.188 65.4332 257.13 65.4332C256.986 65.4332 256.842 65.4332 256.697 65.4332C256.466 65.4332 256.264 65.4332 256.033 65.4332C247.749 65.1726 239.407 65.4332 231.065 66.215C230.921 66.215 230.777 66.215 230.632 66.244C230.546 66.244 230.488 66.244 230.401 66.244C230.257 66.244 230.113 66.244 229.968 66.3019C229.824 66.3019 229.68 66.3308 229.536 66.3598C229.478 66.3598 229.391 66.3598 229.333 66.3598C229.333 66.3598 229.333 66.3598 229.305 66.3598C229.247 66.3598 229.16 66.3598 229.103 66.3598C229.045 66.3598 228.987 66.3598 228.929 66.3598C228.929 66.3598 228.9 66.3598 228.872 66.3598C228.814 66.3598 228.756 66.3598 228.67 66.3598C228.67 66.3598 228.67 66.3598 228.641 66.3598C228.583 66.3598 228.525 66.3598 228.468 66.3598C228.468 66.3598 228.468 66.3598 228.439 66.3598C228.381 66.3598 228.323 66.3598 228.265 66.3598C228.265 66.3598 228.237 66.3598 228.208 66.3598C228.15 66.3598 228.092 66.3598 228.035 66.3598C228.035 66.3598 228.006 66.3598 227.977 66.3598C227.919 66.3598 227.89 66.3598 227.832 66.3598H227.775C227.717 66.3598 227.659 66.3598 227.602 66.3598C227.573 66.3598 227.544 66.3598 227.515 66.3598C227.457 66.3598 227.428 66.3598 227.4 66.3598C227.371 66.3598 227.313 66.3598 227.284 66.3598C227.255 66.3598 227.197 66.3598 227.169 66.3598C227.14 66.3598 227.111 66.3598 227.082 66.3598C227.024 66.3598 226.967 66.3598 226.909 66.3598C226.88 66.3598 226.851 66.3598 226.822 66.3598C226.793 66.3598 226.764 66.3598 226.707 66.3598C226.649 66.3598 226.62 66.3598 226.591 66.3598C226.562 66.3598 226.505 66.3598 226.476 66.3598C226.447 66.3598 226.418 66.3598 226.389 66.3598C226.36 66.3598 226.332 66.3598 226.303 66.3598C226.245 66.3598 226.216 66.3598 226.158 66.3598C226.158 66.3598 226.101 66.3598 226.072 66.3598C226.043 66.3598 226.014 66.3598 225.956 66.3598C225.899 66.3598 225.87 66.3598 225.812 66.3598C225.783 66.3598 225.754 66.3598 225.696 66.3598H225.639C225.581 66.3598 225.523 66.3598 225.466 66.3598C225.466 66.3598 225.437 66.3598 225.408 66.3598C225.379 66.3598 225.321 66.3598 225.292 66.3598C225.292 66.3598 225.119 66.3598 225.033 66.3888C225.033 66.3888 225.033 66.3888 225.004 66.3888C224.773 66.4177 224.571 66.4467 224.34 66.4756C221.742 66.8231 219.173 67.1996 216.575 67.6629L229.247 133.743L241.688 127.517L241.37 127.691Z" fill="#2493FB"/>
<path d="M377.323 112.729C373.686 109.544 369.933 106.503 366.094 103.608C366.094 103.608 365.863 103.434 365.748 103.347C365.575 103.202 365.402 103.086 365.199 102.942C365.026 102.797 364.853 102.681 364.651 102.536C364.536 102.449 364.42 102.362 364.305 102.276C364.247 102.247 364.189 102.189 364.132 102.16C364.132 102.16 364.016 102.073 363.958 102.044C363.901 102.015 363.843 101.957 363.785 101.928C363.727 101.899 363.67 101.841 363.612 101.812C363.612 101.812 363.496 101.725 363.439 101.696C363.381 101.667 363.323 101.61 363.266 101.581C363.15 101.494 363.035 101.407 362.919 101.349C362.919 101.349 362.919 101.349 362.89 101.349C362.833 101.32 362.775 101.262 362.717 101.233C362.659 101.204 362.631 101.175 362.573 101.117C362.573 101.117 362.573 101.117 362.544 101.117C362.486 101.088 362.428 101.03 362.4 101.001C362.4 101.001 362.4 101.001 362.371 101.001C362.313 100.973 362.255 100.915 362.226 100.886C362.226 100.886 362.226 100.886 362.198 100.886C362.169 100.857 362.111 100.828 362.082 100.799C362.082 100.799 362.053 100.799 362.024 100.77C361.967 100.741 361.938 100.712 361.88 100.654C361.88 100.654 361.851 100.654 361.822 100.625C361.793 100.596 361.736 100.567 361.707 100.538C361.707 100.538 361.707 100.538 361.678 100.509C361.62 100.48 361.591 100.451 361.534 100.422C361.534 100.422 361.505 100.422 361.476 100.393C361.418 100.364 361.389 100.335 361.332 100.307C361.332 100.307 361.303 100.307 361.274 100.278C361.245 100.278 361.216 100.22 361.158 100.191C361.158 100.191 361.13 100.191 361.101 100.162C361.043 100.133 361.014 100.104 360.956 100.075C360.956 100.075 360.927 100.046 360.899 100.046C360.87 100.046 360.812 99.988 360.783 99.959C360.783 99.959 360.725 99.9301 360.725 99.9011C360.697 99.9011 360.668 99.8432 360.61 99.8432C360.61 99.8432 360.581 99.8143 360.552 99.8143C360.495 99.7853 360.466 99.7563 360.408 99.7274C360.408 99.7274 360.35 99.6984 360.321 99.6695C360.292 99.6695 360.264 99.6405 360.235 99.6116C360.235 99.6116 360.177 99.5826 360.148 99.5536C360.119 99.5536 360.09 99.4957 360.033 99.4668C360.033 99.4668 359.975 99.4378 359.975 99.4089C359.917 99.3799 359.888 99.3509 359.831 99.322C359.831 99.322 359.802 99.293 359.773 99.2641C359.744 99.2641 359.715 99.2351 359.686 99.2062C359.686 99.2062 359.657 99.2062 359.629 99.1482C359.571 99.1193 359.542 99.0903 359.484 99.0614C359.484 99.0614 359.427 99.0324 359.398 99.0035C359.369 99.0035 359.34 98.9745 359.311 98.9455C359.282 98.9166 359.224 98.8876 359.196 98.8587C359.196 98.8587 359.138 98.8297 359.109 98.8008C359.109 98.8008 359.051 98.7718 359.022 98.7428C358.994 98.7428 358.936 98.6849 358.907 98.656C358.907 98.656 358.849 98.627 358.82 98.5981C358.82 98.5981 358.792 98.5981 358.763 98.5691C358.734 98.5402 358.676 98.5112 358.618 98.4822C358.618 98.4822 358.589 98.4822 358.561 98.4243C358.561 98.4243 358.503 98.3664 358.474 98.3664C358.474 98.3664 358.445 98.3664 358.416 98.3375C358.359 98.3085 358.301 98.2795 358.272 98.2506C358.272 98.2506 358.243 98.2506 358.214 98.2216C358.156 98.1927 358.099 98.1348 358.041 98.1058C358.041 98.1058 358.041 98.1058 358.012 98.1058C357.983 98.1058 357.954 98.0768 357.926 98.0479C357.926 98.0479 357.897 98.0479 357.868 98.0189C357.81 97.99 357.752 97.9321 357.695 97.9031H357.666C357.55 97.8452 357.464 97.7583 357.348 97.7004C357.348 97.7004 357.348 97.7004 357.319 97.7004C357.262 97.6425 357.204 97.6135 357.117 97.5556C357.002 97.4687 356.886 97.4108 356.8 97.324C356.684 97.2371 356.569 97.1792 356.482 97.0923C356.425 97.0344 356.338 97.0054 356.28 96.9475C356.165 96.8606 356.049 96.8027 355.934 96.7159C347.448 91.1851 338.528 86.3782 329.32 82.2664L297.05 147.535L329.407 161.956L377.583 113.105L377.323 112.729Z" fill="#2493FB"/>
<path d="M362.705 222.419L435.214 209.649C431.086 191.203 423.725 172.96 413.882 156.571L362.936 183.124C363.311 185.875 365.159 200.962 362.705 222.39V222.419Z" fill="#2493FB"/>
<path d="M142.843 260.349L61.415 274.133C64.0706 292.955 70.1611 312.298 79.0803 329.846L156.005 290.349C150.405 280.098 146.105 269.992 142.843 260.349Z" fill="#2493FB"/>
<path d="M304.294 341.073L342.107 409.44C355.905 401.998 368.346 393.167 379.372 383.176C379.372 383.176 379.603 382.974 379.718 382.858C379.834 382.771 379.949 382.655 380.036 382.568C380.094 382.51 380.151 382.482 380.209 382.424C380.267 382.366 380.324 382.337 380.353 382.279C380.411 382.221 380.469 382.192 380.527 382.134C380.584 382.076 380.642 382.047 380.7 381.989C380.7 381.989 380.815 381.902 380.844 381.844C380.844 381.844 380.844 381.844 380.873 381.816C380.931 381.758 380.988 381.729 381.017 381.671C381.017 381.671 381.104 381.584 381.162 381.526C381.162 381.526 381.162 381.526 381.19 381.497C381.248 381.439 381.277 381.41 381.335 381.352C381.364 381.323 381.421 381.265 381.45 381.236C381.45 381.236 381.45 381.236 381.479 381.207C381.537 381.178 381.566 381.121 381.623 381.092C381.623 381.092 381.652 381.063 381.681 381.034C381.71 381.005 381.739 380.976 381.797 380.947C381.797 380.947 381.797 380.947 381.854 380.889C381.912 380.86 381.941 380.802 381.999 380.773C381.999 380.773 382.028 380.744 382.056 380.715C382.085 380.715 382.114 380.657 382.143 380.628C382.143 380.628 382.201 380.57 382.23 380.541C382.258 380.541 382.287 380.484 382.316 380.455C382.316 380.455 382.345 380.426 382.374 380.397C382.403 380.368 382.432 380.339 382.489 380.31C382.518 380.281 382.547 380.252 382.576 380.223C382.576 380.223 382.634 380.165 382.663 380.165C382.663 380.165 382.72 380.107 382.749 380.107C382.778 380.078 382.836 380.049 382.865 379.991C382.865 379.991 382.922 379.933 382.951 379.904C382.951 379.904 382.98 379.875 383.009 379.846C383.067 379.789 383.096 379.76 383.153 379.702C383.153 379.702 383.153 379.702 383.182 379.673C383.211 379.644 383.24 379.615 383.269 379.586C383.269 379.586 383.298 379.557 383.326 379.528C383.384 379.47 383.442 379.412 383.5 379.383C383.529 379.354 383.557 379.325 383.586 379.296C383.644 379.238 383.702 379.18 383.759 379.123C383.846 379.036 383.961 378.92 384.048 378.833C384.164 378.746 384.25 378.63 384.366 378.543C386.271 376.69 388.147 374.779 389.965 372.839L327.184 314.549C320.69 323.583 313.069 332.531 304.15 341.247L304.294 341.073Z" fill="#2493FB"/>
<path d="M355.859 256.168C353.001 265.869 349.162 276.062 344.053 286.457L423.258 323.377C431.427 305.511 436.623 286.486 438.614 267.114L355.83 256.168H355.859Z" fill="#2493FB"/>
<path d="M259.728 374.978C249.972 380.798 240.013 371.04 231.729 367.015L222.492 430.836C242.813 433.703 263.885 433.355 284.177 429.678L272.573 366.812C268.474 369.592 264.202 372.314 259.728 374.978Z" fill="#2493FB"/>
<path d="M174.275 317.723L114.207 377.867C128.553 391.998 145.439 403.899 163.71 412.847L198.723 343.176C189.313 334.953 181.231 326.41 174.275 317.723Z" fill="#2493FB"/>
<path d="M333.435 199.944C333.204 198.438 332.598 196.99 331.645 195.745C330.693 194.5 329.423 193.515 327.979 192.849L251.863 158.68C250.535 158.101 249.092 157.782 247.649 157.811C246.205 157.84 244.762 158.188 243.492 158.854L168.617 196.527C165.817 197.946 163.912 200.581 163.536 203.592C163.421 204.461 153.26 293.793 247.62 341.514C249.092 342.238 250.708 342.614 252.354 342.557C253.999 342.499 255.615 342.035 257.001 341.196C345.154 289.247 333.926 203.505 333.435 199.944ZM233.36 282.992L241.558 246.622C236.189 243.147 232.87 237.009 233.62 230.175C234.486 222.096 241.212 215.551 249.583 214.654C260.522 213.467 269.788 221.69 269.846 231.999C269.846 238.08 266.671 243.466 261.821 246.622L270.048 282.992H233.36Z" fill="#2493FB"/>
</svg>
