<?xml version="1.0" standalone="no"?>
<!DOCTYPE svg PUBLIC "-//W3C//DTD SVG 1.1//EN" "http://www.w3.org/Graphics/SVG/1.1/DTD/svg11.dtd">
<svg xmlns="http://www.w3.org/2000/svg" width="426" height="125" viewBox="0 0 426 125" fill="none">
<g clip-path="url(#clip0_492_11655)">
<path d="M103.58 27.0506L61.4196 2.70954C57.4448 0.414529 52.5552 0.414529 48.5804 2.70954L6.41961 27.0506C2.4448 29.3402 0 33.5825 0 38.1672V86.8492C0 91.4339 2.4448 95.6762 6.41961 97.9658L48.5804 122.307C52.5552 124.602 57.4448 124.602 61.4196 122.307L103.58 97.9658C107.555 95.6708 110 91.4339 110 86.8492V38.1672C110 33.5825 107.555 29.3402 103.58 27.0506ZM57.3164 27.0185L84.7121 74.4701C85.5734 75.9626 84.7388 77.1716 84.4606 77.5087C84.1825 77.8457 83.1553 78.8996 81.529 78.3379L59.1727 70.6611C56.4819 69.7356 53.5235 69.7356 50.8326 70.6611L28.4763 78.3379C26.85 78.8996 25.8175 77.8457 25.5447 77.5087C25.2665 77.1716 24.432 75.9626 25.2933 74.4701L52.6889 27.0185C53.3844 25.8094 54.5399 25.681 55.0053 25.681C55.4708 25.681 56.6263 25.8094 57.3218 27.0185H57.3164ZM9.16399 75.9198L9.0035 44.453C8.9821 40.398 11.1487 36.6479 14.6688 34.6364L42.0003 19.0421C43.4233 18.2289 45.0068 19.8178 44.183 21.2408L12.1545 76.7116C11.336 78.1292 9.16934 77.5568 9.15864 75.9198H9.16399ZM87.7721 94.9593L61.1735 109.532C57.3325 111.64 52.6782 111.64 48.8318 109.532L22.2332 94.9593C20.623 94.0766 20.7995 91.7121 22.5168 91.0754L50.5437 80.7024C53.4218 79.6378 56.5835 79.6378 59.4563 80.7024L87.4832 91.0754C89.2058 91.7121 89.377 94.0766 87.7667 94.9593H87.7721ZM100.836 75.9252C100.825 77.5622 98.6587 78.1346 97.8402 76.7169L65.8117 21.2462C64.9932 19.8285 66.5767 18.2396 67.9944 19.0474L95.3258 34.6417C98.8459 36.6532 101.013 40.4033 100.991 44.4584L100.831 75.9252H100.836Z" fill="#1D69F4"/>
</g>
<path d="M381.793 71.6306V70.2757C381.793 65.872 382.668 62.1175 384.418 59.0124C386.168 55.8507 388.483 53.4513 391.363 51.814C394.298 50.1203 397.488 49.2734 400.932 49.2734C404.771 49.2734 407.679 49.9509 409.655 51.3059C411.631 52.6609 413.07 54.0723 413.974 55.5402H415.498V50.459H425.999V99.9159C425.999 102.795 425.152 105.082 423.459 106.775C421.765 108.526 419.507 109.401 416.684 109.401H388.568V100.085H412.958C414.538 100.085 415.329 99.2384 415.329 97.5447V86.6201H413.804C413.24 87.5234 412.449 88.455 411.433 89.4148C410.417 90.3181 409.062 91.0803 407.368 91.7013C405.674 92.3223 403.529 92.6328 400.932 92.6328C397.488 92.6328 394.298 91.8142 391.363 90.1769C388.483 88.4832 386.168 86.0838 384.418 82.9786C382.668 79.817 381.793 76.0343 381.793 71.6306ZM403.981 83.3174C407.255 83.3174 409.994 82.2729 412.195 80.184C414.397 78.095 415.498 75.1592 415.498 71.3766V70.5297C415.498 66.6906 414.397 63.7548 412.195 61.7223C410.05 59.6334 407.312 58.5889 403.981 58.5889C400.706 58.5889 397.968 59.6334 395.766 61.7223C393.564 63.7548 392.463 66.6906 392.463 70.5297V71.3766C392.463 75.1592 393.564 78.095 395.766 80.184C397.968 82.2729 400.706 83.3174 403.981 83.3174Z" fill="#0F0F0F"/>
<path d="M331.643 92.4632V50.4587H342.144V55.9634H343.668C344.346 54.4955 345.616 53.1122 347.479 51.8137C349.342 50.4587 352.165 49.7812 355.948 49.7812C359.222 49.7812 362.073 50.5434 364.501 52.0678C366.985 53.5357 368.905 55.5964 370.26 58.2499C371.615 60.8469 372.292 63.8956 372.292 67.396V92.4632H361.622V68.2429C361.622 65.0813 360.831 62.71 359.25 61.1292C357.726 59.5484 355.524 58.758 352.645 58.758C349.37 58.758 346.83 59.8589 345.023 62.0608C343.216 64.2062 342.313 67.2266 342.313 71.1222V92.4632H331.643Z" fill="#0F0F0F"/>
<path d="M295.726 93.6491C292.734 93.6491 290.052 93.141 287.681 92.1247C285.31 91.052 283.419 89.5277 282.007 87.5517C280.652 85.5192 279.975 83.0633 279.975 80.184C279.975 77.3046 280.652 74.9052 282.007 72.9856C283.419 71.0096 285.338 69.5417 287.766 68.5819C290.25 67.5657 293.073 67.0576 296.234 67.0576H307.752V64.6864C307.752 62.7103 307.131 61.1013 305.889 59.8592C304.647 58.5607 302.671 57.9114 299.961 57.9114C297.307 57.9114 295.331 58.5325 294.033 59.7745C292.734 60.9602 291.887 62.5127 291.492 64.4323L281.668 61.1295C282.346 58.9841 283.419 57.0364 284.886 55.2862C286.411 53.4795 288.415 52.0399 290.899 50.9672C293.44 49.838 296.517 49.2734 300.13 49.2734C305.663 49.2734 310.038 50.6566 313.256 53.4231C316.474 56.1895 318.083 60.198 318.083 65.4485V81.1155C318.083 82.8092 318.874 83.6561 320.455 83.6561H323.842V92.4635H316.728C314.64 92.4635 312.918 91.9554 311.563 90.9391C310.208 89.9229 309.53 88.5679 309.53 86.8742V86.7895H307.921C307.695 87.467 307.187 88.3703 306.397 89.4995C305.606 90.5721 304.364 91.5319 302.671 92.3788C300.977 93.2257 298.662 93.6491 295.726 93.6491ZM297.589 85.0111C300.582 85.0111 303.009 84.1924 304.872 82.5552C306.792 80.8614 307.752 78.6314 307.752 75.865V75.0181H296.997C295.021 75.0181 293.468 75.4415 292.339 76.2884C291.21 77.1352 290.645 78.3209 290.645 79.8452C290.645 81.3696 291.238 82.6116 292.423 83.5714C293.609 84.5312 295.331 85.0111 297.589 85.0111Z" fill="#0F0F0F"/>
<path d="M255.352 92.462V58.0149H244.279V48.8758H255.352V40.7913C255.352 37.8035 256.23 35.4309 257.988 33.6734C259.804 31.8573 262.147 30.9492 265.018 30.9492H276.442V40.0883H268.884C267.244 40.0883 266.424 40.967 266.424 42.7245V48.8758H277.848V58.0149H266.424V92.462H255.352Z" fill="#0F0F0F"/>
<path d="M221.574 93.6491C217.396 93.6491 213.698 92.774 210.48 91.0238C207.318 89.2172 204.834 86.7048 203.028 83.4867C201.277 80.2122 200.402 76.3731 200.402 71.9694V70.9531C200.402 66.5495 201.277 62.7386 203.028 59.5205C204.778 56.2459 207.234 53.7336 210.395 51.9834C213.557 50.1768 217.227 49.2734 221.405 49.2734C225.526 49.2734 229.111 50.205 232.16 52.0681C235.208 53.8747 237.58 56.4153 239.273 59.6899C240.967 62.9079 241.814 66.6624 241.814 70.9531V74.5947H211.242C211.355 77.474 212.428 79.817 214.46 81.6236C216.493 83.4303 218.977 84.3336 221.913 84.3336C224.905 84.3336 227.107 83.6843 228.518 82.3858C229.93 81.0873 231.002 79.6476 231.736 78.0668L240.459 82.6399C239.669 84.1078 238.511 85.7168 236.987 87.467C235.519 89.1607 233.543 90.6286 231.059 91.8707C228.575 93.0563 225.413 93.6491 221.574 93.6491ZM211.327 66.6341H230.974C230.748 64.2065 229.76 62.2587 228.01 60.7908C226.316 59.3229 224.086 58.5889 221.32 58.5889C218.441 58.5889 216.154 59.3229 214.46 60.7908C212.767 62.2587 211.722 64.2065 211.327 66.6341Z" fill="#0F0F0F"/>
<path d="M144 92.4601V82.6365H151.791V43.0033H144V33.1797H168.39C176.35 33.1797 182.391 35.2122 186.513 39.2771C190.69 43.2856 192.779 49.2701 192.779 57.2306V68.4092C192.779 76.3697 190.69 82.3825 186.513 86.4474C182.391 90.4559 176.35 92.4601 168.39 92.4601H144ZM162.97 82.2978H168.559C173.076 82.2978 176.378 81.1122 178.467 78.7409C180.556 76.3697 181.601 73.0387 181.601 68.748V56.8919C181.601 52.5446 180.556 49.2136 178.467 46.8989C176.378 44.5277 173.076 43.342 168.559 43.342H162.97V82.2978Z" fill="#0F0F0F"/>
<defs>
<clipPath id="clip0_492_11655">
<rect width="110" height="123.048" fill="white" transform="translate(0 0.984375)"/>
</clipPath>
</defs>
</svg>